<svg width="64" height="64" viewBox="0 0 64 64" fill="none" xmlns="http://www.w3.org/2000/svg">
<rect width="64" height="64" fill="#0000FF"/>
<path d="M16 18.528C16 17.6621 16 17.2291 16.1632 16.8961C16.3194 16.5772 16.5772 16.3194 16.8961 16.1632C17.2291 16 17.6621 16 18.528 16H45.472C46.3379 16 46.7709 16 47.1039 16.1632C47.4227 16.3194 47.6806 16.5772 47.8368 16.8961C48 17.2291 48 17.6621 48 18.528V45.472C48 46.3379 48 46.7709 47.8368 47.1039C47.6806 47.4227 47.4227 47.6806 47.1039 47.8368C46.7709 48 46.3379 48 45.472 48H18.528C17.6621 48 17.2291 48 16.8961 47.8368C16.5772 47.6806 16.3194 47.4227 16.1632 47.1039C16 46.7709 16 46.3379 16 45.472V18.528Z" fill="white"/>
</svg>
